<svg width="25" height="24" viewBox="0 0 25 24" fill="none" xmlns="http://www.w3.org/2000/svg">
<path d="M3.72444 12.4863C3.57621 12.2312 3.57617 11.9164 3.72374 11.6609C5.59945 8.41339 9.08563 6.418 12.8056 6.50259C17.6423 6.61245 20.4383 10.1824 21.2541 11.4042C21.4178 11.6494 21.4286 11.9614 21.2883 12.2207C19.5646 15.4055 16.24 17.4384 12.598 17.4986C8.94601 17.5588 5.54863 15.626 3.72444 12.4863Z" stroke="#C7C7CC" stroke-width="1.5" stroke-miterlimit="10"/>
<path d="M12.5 15.2305C14.2841 15.2305 15.7305 13.7842 15.7305 12C15.7305 10.2159 14.2841 8.76953 12.5 8.76953C10.7158 8.76953 9.26947 10.2159 9.26947 12C9.26947 13.7842 10.7158 15.2305 12.5 15.2305Z" stroke="#C7C7CC" stroke-width="1.5" stroke-miterlimit="10"/>
</svg>
