<svg width="24" height="24" viewBox="0 0 24 24" fill="none" xmlns="http://www.w3.org/2000/svg">
<path fill-rule="evenodd" clip-rule="evenodd" d="M10.294 9.69793C10.2008 9.60601 10.1268 9.49649 10.0762 9.37572C10.0257 9.25495 9.99969 9.12534 9.99969 8.99443C9.99969 8.86352 10.0257 8.73391 10.0762 8.61314C10.1268 8.49237 10.2008 8.38285 10.294 8.29093C10.483 8.10436 10.7379 7.99976 11.0035 7.99976C11.2691 7.99976 11.524 8.10436 11.713 8.29093L14.678 11.2309C14.7802 11.3323 14.8613 11.4528 14.9167 11.5857C14.972 11.7185 15.0005 11.861 15.0005 12.0049C15.0005 12.1488 14.972 12.2913 14.9167 12.4242C14.8613 12.557 14.7802 12.6776 14.678 12.7789L11.723 15.7089C11.5339 15.8958 11.2788 16.0006 11.013 16.0006C10.7472 16.0006 10.492 15.8958 10.303 15.7089C10.2098 15.617 10.1358 15.5075 10.0852 15.3867C10.0347 15.2659 10.0087 15.1363 10.0087 15.0054C10.0087 14.8745 10.0347 14.7449 10.0852 14.6241C10.1358 14.5034 10.2098 14.3938 10.303 14.3019L12.621 12.0049L10.294 9.69793Z" fill="#636366"/>
</svg>
