<svg width="24" height="24" viewBox="0 0 24 24" fill="none" xmlns="http://www.w3.org/2000/svg">
<path d="M11.6484 2.64063C11.5 2.69532 11.1328 3.04297 9.23831 4.93748C7.52739 6.6445 6.98442 7.2109 6.92583 7.34371C6.82427 7.57027 6.82036 7.92964 6.91802 8.14839C7.00395 8.3398 7.27739 8.58198 7.46489 8.63276C7.54301 8.65229 7.68364 8.67182 7.78129 8.67182C8.14066 8.67182 8.25004 8.58198 9.69533 7.13278L11.043 5.78123L11.0625 11.4335L11.082 17.0897L11.168 17.246C11.3477 17.5819 11.6289 17.7499 12 17.7499C12.3711 17.7499 12.6523 17.5819 12.832 17.246L12.918 17.0897L12.9375 11.4335L12.957 5.78123L14.3047 7.13278C15.75 8.58198 15.8593 8.67182 16.2187 8.67182C16.3164 8.67182 16.457 8.65229 16.5351 8.63276C16.7226 8.58198 16.996 8.3398 17.082 8.14839C17.1796 7.92964 17.1757 7.57027 17.0742 7.34371C17.0156 7.2109 16.4765 6.64841 14.7812 4.95701C13.5625 3.73828 12.5039 2.71094 12.4297 2.67579C12.2422 2.58204 11.8672 2.56641 11.6484 2.64063Z" fill="#FE7A36"/>
<path d="M2.52743 11.7539C2.32822 11.8437 2.16415 12.0078 2.07431 12.207C2.004 12.3554 2.00009 12.5703 2.00009 16.5351C2.00009 21.1015 1.98838 20.8554 2.22665 21.1093C2.28525 21.1718 2.42197 21.2616 2.52743 21.3124L2.72274 21.4061H12H21.2773L21.4726 21.3124C21.5819 21.2616 21.7148 21.1718 21.7733 21.1093C22.0116 20.8554 21.9999 21.1015 21.9999 16.5351C21.9999 12.5703 21.996 12.3554 21.9257 12.207C21.7108 11.7422 21.1679 11.5469 20.6913 11.7734C20.457 11.8828 20.3515 11.9922 20.246 12.2265C20.1679 12.3984 20.164 12.4648 20.164 15.9648V19.5312H12H3.83601V15.9648V12.4023L3.74226 12.207C3.69148 12.0976 3.60945 11.9726 3.55867 11.9258C3.30086 11.6914 2.83602 11.6133 2.52743 11.7539Z" fill="#FE7A36"/>
</svg>
