<svg width="506" height="21" viewBox="0 0 506 21" fill="none" xmlns="http://www.w3.org/2000/svg">
<path d="M247.12 4.97168C249.916 4.97168 251.666 6.94043 251.666 10.0713C251.666 13.2021 249.916 15.1641 247.12 15.1641C244.324 15.1641 242.574 13.2021 242.574 10.0713C242.574 6.94043 244.324 4.97168 247.12 4.97168ZM247.12 6.10645C245.104 6.10645 243.839 7.6377 243.839 10.0713C243.839 12.498 245.104 14.0293 247.12 14.0293C249.137 14.0293 250.401 12.498 250.401 10.0713C250.401 7.6377 249.137 6.10645 247.12 6.10645ZM253.293 15V7.89062H254.414V9.05273H254.441C254.674 8.2666 255.33 7.76758 256.164 7.76758C256.369 7.76758 256.547 7.80176 256.642 7.81543V8.9707C256.547 8.93652 256.294 8.90234 256.007 8.90234C255.084 8.90234 254.482 9.56543 254.482 10.5703V15H253.293Z" fill="#8E8E93"/>
<path d="M0 10L231 9.99998" stroke="#8E8E93"/>
<path d="M268 10H506" stroke="#8E8E93"/>
</svg>
