<svg width="44" height="44" viewBox="0 0 44 44" fill="none" xmlns="http://www.w3.org/2000/svg">
<path d="M20.0979 0.0338287C14.4838 0.639397 9.81588 2.88504 6.09417 6.78337C1.89305 11.1863 -0.264282 16.9392 0.0258857 22.9823C0.202509 26.5274 1.12348 29.7823 2.82663 32.7849C7.97395 41.9062 18.8363 46.1326 28.8029 42.8903C38.656 39.6858 44.964 29.9842 43.879 19.6643C42.8445 9.87429 35.3001 1.85053 25.6111 0.273533C24.4126 0.0716782 21.0819 -0.0671005 20.0979 0.0338287ZM24.3243 6.94738C26.141 7.56556 27.6675 8.90286 28.4875 10.6186C29.0931 11.8802 29.2949 12.9021 29.2192 14.3151C29.0174 17.6836 26.5447 20.396 23.1383 20.9763C22.1291 21.153 21.8894 21.153 20.8927 20.989C19.3536 20.724 18.155 20.1437 17.0574 19.0966C15.9977 18.0873 15.4174 17.1537 15.0263 15.829C13.8025 11.5774 16.5023 7.41417 21.0441 6.59414C21.738 6.46798 23.4411 6.65722 24.3243 6.94738ZM27.945 24.8747C30.5439 25.4802 32.6886 27.5871 33.3447 30.1734C33.6348 31.3214 33.597 32.5704 33.2311 33.34C32.4868 34.9296 28.9038 37.0365 25.548 37.8313C24.564 38.071 24.0215 38.1088 21.9903 38.1088C19.9591 38.1088 19.4166 38.071 18.4326 37.8313C16.4393 37.3519 14.6983 36.5949 12.9699 35.4595C10.9513 34.1348 10.4467 33.4031 10.4467 31.7882C10.4467 29.8958 11.1279 28.3062 12.5409 26.868C13.4871 25.8966 14.7361 25.1775 16.0482 24.8621C17.0574 24.6224 26.8979 24.6224 27.945 24.8747Z" fill="#636366"/>
</svg>
